<svg width="441" height="443" viewBox="0 0 441 443" fill="none" xmlns="http://www.w3.org/2000/svg">
<path d="M113.804 17.2606C117.611 20.9454 121.621 24.4134 126.083 27.3128C148.838 42.1054 216.543 77.6981 323.925 63.1518C458.093 44.9766 438.41 176.821 419.104 211.959C399.798 247.098 328.795 311.513 322.831 343.787C316.868 376.061 342.387 464.211 282.594 437.759C222.801 411.308 188.259 349.354 109.776 356.554C31.2928 363.755 -24.1653 329.764 10.5761 269.036C45.3176 208.307 86.8537 169.119 33.8378 101.475C-17.7064 35.7122 69.1145 -25.9955 113.804 17.2606Z" fill="#EFEFEF"/>
<path d="M249.944 85.3908C248.949 84.4117 248.38 83.0946 248.355 81.7148C248.331 80.3351 248.853 78.9995 249.813 77.9873L285.214 40.6426C285.716 40.1137 286.321 39.6893 286.995 39.395C287.668 39.1007 288.396 38.9425 289.134 38.93C289.871 38.9175 290.604 39.0509 291.288 39.3222C291.971 39.5936 292.592 39.9972 293.111 40.5088L296.168 43.5166C296.687 44.0283 297.096 44.6375 297.369 45.3075C297.642 45.9775 297.773 46.6945 297.755 47.4155C297.737 48.1364 297.57 48.8463 297.264 49.5025C296.958 50.1587 296.52 50.7478 295.975 51.2341L257.518 85.5709C256.476 86.5019 255.106 87.003 253.694 86.9694C252.282 86.9358 250.939 86.3702 249.944 85.3908Z" fill="#8F1C26"/>
<path d="M227.536 72.6615C226.69 72.2949 226.021 71.6227 225.67 70.7855C225.319 69.9483 225.312 69.0109 225.652 68.1692L238.18 37.1147C238.358 36.6749 238.625 36.2746 238.964 35.9381C239.304 35.6015 239.71 35.3356 240.158 35.1563C240.605 34.977 241.086 34.888 241.569 34.8946C242.053 34.9013 242.53 35.0035 242.973 35.1951L245.573 36.3215C246.015 36.513 246.413 36.7901 246.743 37.1359C247.073 37.4817 247.328 37.8891 247.493 38.3337C247.657 38.7783 247.728 39.2508 247.701 39.7229C247.674 40.195 247.55 40.6569 247.336 41.0808L232.208 71.0089C231.798 71.8203 231.083 72.4454 230.212 72.7534C229.341 73.0614 228.383 73.0285 227.536 72.6615Z" fill="#8F1C26"/>
<path d="M204.738 77.737C201.851 78.2451 198.954 75.8237 198.17 72.2482L184.275 8.76057C183.446 4.96646 185.305 1.35796 188.368 0.818407L192.636 0.0675149C195.699 -0.47143 198.731 2.27779 199.306 6.1155L208.934 70.3538C209.476 73.9729 207.625 77.2289 204.738 77.737Z" fill="#8F1C26"/>
<path d="M429.326 137.486L368.045 129.765C367.013 129.657 365.972 129.86 365.061 130.345C364.15 130.83 363.412 131.576 362.945 132.482L346.65 163.928L278.438 297.259C277.713 298.668 276.499 299.777 275.012 300.39C273.526 301.002 271.865 301.076 270.327 300.6L85.1789 242.841C84.6682 242.681 84.1261 242.643 83.5973 242.728C83.0684 242.814 82.5678 243.02 82.1367 243.332C81.7056 243.643 81.3563 244.05 81.1175 244.519C80.8788 244.988 80.7574 245.506 80.7634 246.03L80.8483 253.544C80.8586 254.589 81.206 255.604 81.841 256.445C82.4759 257.285 83.366 257.908 84.3846 258.226L280.276 319.335C282.46 320.016 284.42 321.249 285.959 322.91C287.498 324.57 288.561 326.598 289.039 328.789L289.105 329.089C290.809 338.236 281.585 345.746 272.496 343.049L57.6941 275.954C56.5923 275.611 55.6431 274.911 55.0038 273.97C54.3644 273.028 54.0732 271.902 54.1782 270.776L70.989 91.3599C71.0735 90.4348 71.3561 89.5375 71.8185 88.7261C72.2809 87.9147 72.9127 87.2075 73.6729 86.6502C74.4331 86.0929 75.3047 85.6982 76.2312 85.4915C77.1576 85.2848 78.1182 85.2709 79.0505 85.4506L336.379 134.65L352.953 102.457C353.431 101.548 354.184 100.803 355.109 100.325C356.034 99.8461 357.087 99.6565 358.126 99.7814L433.17 109.174C433.835 109.255 434.478 109.465 435.06 109.791C435.642 110.117 436.152 110.553 436.561 111.073C436.97 111.593 437.269 112.187 437.441 112.821C437.613 113.455 437.655 114.116 437.564 114.765L435.005 133.213C434.828 134.514 434.131 135.693 433.067 136.493C432.003 137.294 430.658 137.651 429.326 137.486Z" fill="#E52823"/>
<path d="M81.3657 212.121L102.334 218.662L122.447 118.98L90.2572 114.149L81.3657 212.121Z" fill="#EFEFEF"/>
<path d="M245.885 263.445L266.854 269.986L321.08 158.364L297.984 152.896L245.885 263.445Z" fill="#EFEFEF"/>
<path d="M165.238 238.286L184.593 244.324L226.053 139.141L194.378 132.734L165.238 238.286Z" fill="#EFEFEF"/>
<path d="M140.704 122.938L172.38 129.345L144.27 231.744L123.302 225.203L140.704 122.938Z" fill="#EFEFEF"/>
<path d="M278.114 148.434L246.438 142.026L207.175 251.368L226.53 257.406L278.114 148.434Z" fill="#EFEFEF"/>
<path d="M85.4119 340.729C98.9706 340.729 109.962 329.986 109.962 316.735C109.962 303.483 98.9706 292.741 85.4119 292.741C71.8533 292.741 60.8618 303.483 60.8618 316.735C60.8618 329.986 71.8533 340.729 85.4119 340.729Z" fill="#8F1C26"/>
<path d="M238.641 388.53C252.2 388.53 263.191 377.787 263.191 364.536C263.191 351.284 252.2 340.542 238.641 340.542C225.082 340.542 214.091 351.284 214.091 364.536C214.091 377.787 225.082 388.53 238.641 388.53Z" fill="#8F1C26"/>
<path d="M440.351 108.18L375.676 100.266C375.317 100.223 374.99 100.471 374.945 100.822L371.025 131.425C370.98 131.775 371.234 132.095 371.593 132.139L436.268 140.052C436.627 140.096 436.954 139.848 436.999 139.497L440.919 108.894C440.964 108.544 440.71 108.224 440.351 108.18Z" fill="#8F1C26"/>
</svg>
