<svg width="211" height="398" viewBox="0 0 211 398" fill="none" xmlns="http://www.w3.org/2000/svg">
<g clip-path="url(#clip0_496_49265)">
<path d="M205.042 337.983C206.181 333.831 211.503 330.697 215.74 331.666C220.179 332.689 223.524 338.324 222.294 342.721C221.059 347.142 215.285 350.283 210.999 348.879C206.83 347.518 203.901 342.148 205.042 337.983Z" fill="#EB272E"/>
<path d="M166.795 73.5809C165.576 78.2752 160.948 80.9675 156.327 79.6653C151.861 78.4047 149.041 73.3453 150.366 68.9738C151.624 64.8533 156.428 62.08 160.652 63.0454C165.124 64.0901 167.986 68.9941 166.795 73.5809Z" fill="#EB2830"/>
<path d="M164.867 94.3526C166.098 89.7124 170.757 87.0928 175.432 88.4349C179.763 89.6722 182.508 94.1991 181.538 98.4865C180.54 102.881 175.451 106.001 171.04 104.922C166.607 103.824 163.681 98.8254 164.867 94.3526Z" fill="#EB2830"/>
<path d="M193.729 144.535C194.892 139.954 199.674 137.213 204.29 138.488C208.622 139.674 211.4 144.172 210.472 148.496C209.518 152.916 204.492 156.09 200.052 155.067C195.652 154.042 192.604 148.973 193.729 144.535Z" fill="#EB2830"/>
<path d="M135.975 44.2392C137.23 39.5544 141.823 36.9937 146.521 38.3422C150.837 39.5883 153.585 44.1033 152.619 48.3787C151.629 52.7888 146.614 55.8257 142.112 54.7475C137.643 53.691 134.764 48.7566 135.975 44.2392Z" fill="#EB272E"/>
<path d="M132.061 13.0512C136.526 14.3118 139.176 19.2874 137.807 23.8261C136.491 28.1617 131.994 30.7481 127.63 29.6813C123.207 28.5985 120.186 23.5237 121.352 19.1226C122.509 14.7573 127.691 11.8163 132.061 13.0512Z" fill="#EB2830"/>
<path d="M49.2859 241.708C44.8244 240.385 42.2282 235.398 43.6459 230.872C44.9972 226.546 49.5326 224.008 53.8717 225.12C58.2943 226.254 61.2697 231.355 60.0587 235.731C58.8508 240.095 53.6311 242.988 49.2859 241.708Z" fill="#EB2830"/>
<path d="M210.984 34.1981C215.529 35.403 218.12 40.1705 216.792 44.887C215.531 49.3526 211.226 51.9392 206.769 50.8858C202.336 49.8389 199.175 44.7137 200.336 40.4265C201.549 35.9482 206.559 33.0253 210.984 34.1981Z" fill="#32343E"/>
<path d="M195.768 90.2212C191.294 88.8945 188.473 83.745 189.904 79.5044C191.401 75.0638 196.521 72.4008 200.828 73.8238C205.286 75.3004 207.605 80.1743 206.081 84.8125C204.624 89.1997 200.182 91.5319 195.768 90.2212Z" fill="#32343E"/>
<path d="M195.697 123.709C194.459 128.424 189.913 131.049 185.244 129.734C180.97 128.525 178.231 123.974 179.201 119.686C180.218 115.22 185.19 112.107 189.604 113.175C194.079 114.258 196.899 119.126 195.697 123.709Z" fill="#32343E"/>
<path d="M192.073 59.219C190.906 63.6201 185.848 66.5302 181.384 65.3597C177.052 64.2244 174.24 59.0391 175.533 54.5951C176.829 50.1901 181.15 47.7358 185.662 48.8681C190.402 50.0613 193.271 54.6984 192.073 59.219Z" fill="#32343E"/>
<path d="M167.223 40.2899C162.785 39.2158 159.698 34.1489 160.807 29.7709C161.903 25.4406 167.113 22.443 171.498 23.6182C175.804 24.7591 178.453 29.2604 177.463 33.7215C176.389 38.4933 171.841 41.412 167.223 40.2899Z" fill="#32343E"/>
<path d="M129.197 181.682C133.596 182.95 136.285 187.974 134.946 192.444C133.559 197.094 128.912 199.525 124.264 198.036C120.052 196.69 117.415 192 118.518 187.786C119.657 183.442 124.902 180.454 129.197 181.682Z" fill="#EB272E"/>
<path d="M95.9285 148.135C91.3887 147.009 88.4218 142.115 89.5708 137.683C90.6941 133.348 95.9881 130.321 100.268 131.558C104.428 132.762 107.159 137.439 106.195 141.754C105.143 146.493 100.612 149.301 95.9285 148.135Z" fill="#EB2830"/>
<path d="M75.2681 112.857C76.4158 108.144 80.9841 105.435 85.6537 106.699C90.1679 107.922 93.0558 112.871 91.8025 117.262C90.6292 121.354 85.7849 124.231 81.5868 123.312C77.1464 122.339 74.1652 117.403 75.2681 112.857Z" fill="#EB2830"/>
<path d="M38.9241 281.239C34.3492 280.052 31.6899 275.253 33.0256 270.603C34.2853 266.188 38.6998 263.529 43.0764 264.548C47.5008 265.579 50.6356 270.659 49.5688 275.023C48.5084 279.363 43.3316 282.382 38.9241 281.239Z" fill="#32343E"/>
<path d="M28.1497 320.686C23.5798 319.384 21.0528 314.57 22.4786 309.918C23.8123 305.562 28.3519 302.961 32.6638 304.078C37.0593 305.217 40.1175 310.392 38.9225 314.708C37.7449 319.055 32.5404 321.939 28.1497 320.686Z" fill="#32343E"/>
<path d="M220.755 110.071C219.083 114.4 213.671 116.908 209.573 115.234C205.29 113.484 202.946 108.129 204.643 103.947C206.425 99.5445 211.441 97.5071 215.953 99.3567C220.12 101.062 222.325 105.982 220.755 110.071Z" fill="#32343E"/>
<path d="M145.403 119.046C141.036 117.658 138.31 112.342 139.81 108.133C141.243 104.123 146.384 101.428 150.359 102.608C154.725 103.906 157.416 108.969 156.092 113.431C154.723 118.11 150.102 120.536 145.403 119.046Z" fill="#32343E"/>
<path d="M125.352 83.9308C126.558 79.1432 131.011 76.5321 135.764 77.8185C140.242 79.0313 143.153 84.0382 141.91 88.393C140.758 92.4522 135.814 95.3672 131.658 94.433C127.263 93.4347 124.233 88.3958 125.352 83.9308Z" fill="#32343E"/>
<path d="M93.6958 202.026C95.0721 197.464 99.9558 194.917 104.469 196.382C108.603 197.733 111.28 202.562 110.192 206.716C109.054 211.06 103.839 214.031 99.4809 212.799C95.0807 211.581 92.3484 206.481 93.6958 202.026Z" fill="#EB2830"/>
<path d="M61.9319 320.618C63.2554 316.156 68.3889 313.395 72.6837 314.814C76.8112 316.189 79.5055 321.049 78.4366 325.181C77.3156 329.556 72.1732 332.495 67.7849 331.28C63.2619 330.043 60.5859 325.163 61.9319 320.618Z" fill="#EB272E"/>
<path d="M121.588 52.5656C125.882 53.8443 128.564 59.0845 127.173 63.4638C125.775 67.8671 121.392 70.2663 116.94 69.099C112.5 67.9349 109.545 62.8522 110.774 58.5061C111.966 54.2015 117.282 51.2837 121.588 52.5656Z" fill="#32343E"/>
<path d="M95.5613 181.392C94.4 186.204 90.0071 188.831 85.2235 187.562C80.7268 186.37 77.7791 181.405 78.987 177.04C80.1028 172.971 84.9168 170.111 89.2091 170.967C93.5764 171.83 96.6427 176.878 95.5613 181.392Z" fill="#32343E"/>
<path d="M74.6339 227.084C70.1013 225.882 67.2157 220.972 68.4571 216.578C69.6856 212.232 74.8893 209.399 79.2401 210.706C83.4387 211.959 86.0408 216.589 84.9804 220.928C83.8295 225.654 79.3337 228.33 74.6339 227.084Z" fill="#32343E"/>
<path d="M54.1805 191.604C55.5138 186.915 60.1545 184.367 64.8008 185.766C69.1842 187.094 71.9921 192.342 70.5851 196.589C69.2477 200.624 64.2833 203.329 60.1323 202.281C55.7868 201.193 52.9263 196.046 54.1805 191.604Z" fill="#32343E"/>
<path d="M154.308 133.806C155.612 129.134 160.24 126.583 164.929 127.967C169.11 129.19 171.949 133.986 170.935 138.107C169.865 142.483 164.689 145.592 160.366 144.472C155.997 143.327 153.079 138.203 154.308 133.806Z" fill="#32343E"/>
<path d="M56.0365 171.006C54.7381 175.756 50.2449 178.28 45.5141 176.91C41.0549 175.625 38.2294 170.539 39.5655 166.222C40.8312 162.167 45.8244 159.355 49.9308 160.379C54.2969 161.484 57.2333 166.588 56.0365 171.006Z" fill="#32343E"/>
<path d="M34.8795 249.966C33.672 254.663 29.1293 257.276 24.4183 255.975C19.8507 254.713 17.0576 249.84 18.3715 245.414C19.5934 241.284 24.3538 238.576 28.6165 239.59C33.2169 240.682 36.0549 245.388 34.8795 249.966Z" fill="#32343E"/>
<path d="M199.853 188.125C198.819 192.51 193.7 195.647 189.34 194.568C185.003 193.496 182.016 188.341 183.174 183.925C184.313 179.58 188.749 176.888 193.204 177.851C197.699 178.812 200.89 183.727 199.853 188.125Z" fill="#32343E"/>
<path d="M143.719 173.327C145.007 168.664 149.672 166.072 154.316 167.431C158.736 168.718 161.563 173.895 160.183 178.187C158.875 182.256 153.906 185.023 149.806 183.976C145.443 182.858 142.501 177.728 143.719 173.327Z" fill="#32343E"/>
<path d="M133.104 212.944C134.322 208.301 139.001 205.61 143.629 206.888C148.029 208.105 150.929 213.25 149.631 217.565C148.398 221.641 143.489 224.476 139.346 223.493C134.948 222.456 131.955 217.376 133.104 212.944Z" fill="#32343E"/>
<path d="M145.582 152.654C144.335 157.405 139.862 159.946 135.11 158.609C130.907 157.419 128.049 152.695 129.01 148.533C130.029 144.157 135.173 140.975 139.506 142.059C143.887 143.156 146.759 148.166 145.582 152.654Z" fill="#32343E"/>
<path d="M103.19 310.961C101.852 315.521 96.9702 318.158 92.5407 316.715C88.3829 315.358 85.6868 310.6 86.7414 306.426C87.8505 302.047 92.9323 299.144 97.3565 300.368C101.977 301.67 104.558 306.332 103.19 310.961Z" fill="#32343E"/>
<path d="M114.807 123.285C116.084 118.568 120.638 116.01 125.351 117.349C129.789 118.616 132.632 123.732 131.281 128.058C130.019 132.101 125.01 134.922 120.928 133.905C116.55 132.795 113.61 127.704 114.807 123.285Z" fill="#32343E"/>
<path d="M104.154 162.995C105.28 158.314 109.915 155.547 114.559 156.765C119.047 157.942 121.973 162.94 120.735 167.322C119.582 171.433 114.762 174.317 110.545 173.417C106.131 172.491 103.073 167.508 104.154 162.995Z" fill="#EB2830"/>
<path d="M88.7236 252.275C84.4119 250.966 81.7538 245.733 83.1809 241.363C84.5983 237.029 89.16 234.537 93.4734 235.744C97.8824 236.976 100.83 242.134 99.5783 246.423C98.3202 250.735 93.0353 253.584 88.7236 252.275Z" fill="#32343E"/>
<path d="M116.67 102.612C115.381 107.326 110.816 109.881 106.121 108.521C101.721 107.252 98.8855 102.061 100.239 97.7738C101.525 93.7379 106.543 90.9321 110.619 91.9731C115.006 93.0973 117.889 98.1608 116.67 102.612Z" fill="#32343E"/>
<path d="M85.9488 73.0909C87.2982 68.3417 91.7873 65.8812 96.5141 67.3143C100.957 68.6585 103.734 73.7833 102.336 78.0454C101.007 82.0957 96.1003 84.7772 91.9102 83.7313C87.5584 82.6677 84.6859 77.5174 85.9488 73.0909Z" fill="#32343E"/>
<path d="M64.7863 152.024C66.1555 147.344 70.7921 144.859 75.4527 146.3C79.5939 147.576 82.3281 152.382 81.2974 156.563C80.2498 160.855 74.8944 163.967 70.6439 162.765C66.262 161.526 63.4962 156.456 64.7863 152.024Z" fill="#32343E"/>
<path d="M98.3796 12.9793C97.122 17.625 92.3313 20.3505 87.8132 18.999C83.4147 17.6795 80.5494 12.4543 81.8934 8.20318C83.171 4.15207 88.0702 1.40437 92.2643 2.38729C96.6225 3.42698 99.5708 8.53357 98.3796 12.9793Z" fill="#32343E"/>
<path d="M77.3708 58.4968C72.949 57.312 70.0191 52.1847 71.2803 47.8602C72.4623 43.7834 77.3728 40.8979 81.5375 41.8473C85.9324 42.8456 88.9597 47.8965 87.8314 52.3463C86.6359 57.047 82.0285 59.7576 77.3708 58.4968Z" fill="#32343E"/>
<path d="M77.1926 92.0978C75.9023 96.7219 71.1707 99.3224 66.5602 97.9333C62.3617 96.6802 59.6138 91.9732 60.6063 87.7432C61.6276 83.4057 66.83 80.2909 71.1865 81.4326C75.5941 82.5752 78.4444 87.6171 77.1926 92.0978Z" fill="#EB2830"/>
<path d="M66.6624 131.302C65.4812 136.045 60.9854 138.721 56.2584 137.48C51.7943 136.31 48.8659 131.272 50.0857 126.911C51.2222 122.861 56.1726 119.922 60.3079 120.838C64.6973 121.809 67.7636 126.858 66.6624 131.302Z" fill="#32343E"/>
<path d="M45.3865 210.703C43.9989 215.404 39.4564 217.824 34.7393 216.355C30.3145 214.99 27.5775 209.812 29.0355 205.566C30.4151 201.517 35.3268 198.913 39.5192 199.998C43.8638 201.137 46.6853 206.286 45.3865 210.703Z" fill="#32343E"/>
<path d="M96.5169 33.6023C97.8543 28.85 102.313 26.407 107.07 27.8225C111.269 29.0756 114.088 33.8019 113.086 37.9267C112.019 42.2904 106.929 45.32 102.497 44.2221C98.1361 43.1433 95.2714 38.0592 96.5169 33.6023Z" fill="#32343E"/>
<path d="M18.176 279.318C22.942 280.557 25.5555 285.048 24.2134 289.723C22.9825 294.03 18.5106 296.712 14.1538 295.763C9.7971 294.813 6.55559 289.654 7.63903 285.371C8.79058 280.787 13.4665 278.107 18.176 279.318Z" fill="#32343E"/>
<path d="M164.302 208.751C159.802 207.571 156.807 202.593 158.046 198.301C159.27 194.069 164.678 191.048 168.835 192.264C172.909 193.458 175.583 198.248 174.554 202.519C173.38 207.379 169.065 210.002 164.302 208.751Z" fill="#32343E"/>
<path d="M118.09 302.439C113.651 301.365 110.74 296.358 111.95 291.891C113.095 287.664 117.714 284.816 121.97 285.713C126.384 286.639 129.565 291.642 128.584 296.067C127.604 300.441 122.525 303.525 118.09 302.439Z" fill="#32343E"/>
<path d="M212.169 233.707C213.499 229.363 218.691 226.719 223.066 228.173C227.197 229.536 229.834 234.419 228.669 238.526C227.431 242.908 222.241 245.834 217.971 244.561C213.641 243.273 210.845 238.028 212.169 233.707Z" fill="#32343E"/>
<path d="M124.373 231.855C123.036 236.607 118.593 238.99 113.807 237.541C109.602 236.261 106.825 231.521 107.86 227.417C108.925 223.207 114.287 220.071 118.527 221.168C122.863 222.292 125.628 227.362 124.373 231.855Z" fill="#32343E"/>
<path d="M78.4574 291.833C74.0705 290.709 71.2298 285.631 72.5079 281.196C73.71 276.996 78.4363 274.176 82.6033 275.165C87.0006 276.202 90.1266 281.267 89.0718 285.634C88.009 289.935 82.8561 292.96 78.4574 291.833Z" fill="#32343E"/>
<path d="M174.715 169.221C170.249 168.011 167.339 162.902 168.683 158.651C170.037 154.364 175.379 151.492 179.535 152.81C183.607 154.106 186.188 158.91 185.102 163.153C183.884 167.937 179.48 170.51 174.715 169.221Z" fill="#32343E"/>
<path d="M153.311 281.942C151.993 286.623 147.435 289.103 142.744 287.68C138.504 286.39 135.829 281.792 136.861 277.56C137.943 273.187 142.993 270.211 147.397 271.366C151.921 272.552 154.604 277.357 153.311 281.942Z" fill="#32343E"/>
<path d="M113.851 271.075C112.657 275.866 108.284 278.421 103.507 277.128C99.2584 275.964 96.3756 271.426 97.2207 267.221C98.0881 262.931 103.266 259.669 107.607 260.679C112.151 261.742 114.991 266.487 113.851 271.075Z" fill="#32343E"/>
<path d="M107.471 341.927C103.071 340.851 100.155 335.817 101.385 331.369C102.53 327.193 107.187 324.342 111.449 325.215C115.783 326.107 119.022 331.228 118.012 335.619C116.994 339.945 111.898 342.998 107.471 341.927Z" fill="#32343E"/>
<path d="M208.207 169.472C209.303 165.193 214.621 162.122 218.848 163.319C222.907 164.47 225.641 169.276 224.642 173.53C223.507 178.388 219.216 181.068 214.452 179.868C209.855 178.714 207.038 174.026 208.207 169.472Z" fill="#32343E"/>
<path d="M203.8 219.335C199.216 218.133 196.424 213.401 197.634 208.883C198.789 204.62 204.143 201.61 208.342 202.863C212.397 204.078 215.059 208.864 214.033 213.124C212.878 217.963 208.563 220.586 203.8 219.335Z" fill="#32343E"/>
<path d="M192.843 292.497C191.551 297.172 186.983 299.688 182.31 298.295C178.016 297.016 175.393 292.509 176.426 288.226C177.503 283.775 182.445 280.821 186.891 281.961C191.377 283.099 194.105 287.929 192.843 292.497Z" fill="#32343E"/>
<path d="M68.169 250.111C72.6826 251.193 75.5101 255.985 74.3499 260.554C73.184 265.097 69.1108 267.63 64.55 266.677C59.9925 265.712 56.7887 260.985 57.724 256.586C58.6186 252.292 63.8379 249.066 68.169 250.111Z" fill="#32343E"/>
<path d="M57.9724 289.981C62.7151 291.354 65.1007 295.836 63.6199 300.55C62.2814 304.828 57.7515 307.393 53.4419 306.315C49.1682 305.247 46.0432 299.939 47.2039 295.703C48.3742 291.431 53.5284 288.688 57.9724 289.981Z" fill="#32343E"/>
<path d="M122.495 252.537C123.614 248.073 128.622 245.111 132.992 246.346C137.377 247.572 140.309 252.738 139.046 257.024C137.852 261.097 132.975 263.953 128.822 263.007C124.43 261.997 121.385 256.967 122.495 252.537Z" fill="#32343E"/>
<path d="M172.587 223.486C173.702 219.084 178.771 216.228 183.198 217.491C187.365 218.671 190.179 223.37 189.264 227.596C188.333 231.932 183.177 235.11 178.798 234.052C174.464 233.019 171.468 227.9 172.587 223.486Z" fill="#32343E"/>
<path d="M163.839 242.506C162.451 247.258 158.045 249.6 153.244 248.108C149.07 246.811 146.306 242.022 147.398 237.947C148.503 233.773 153.958 230.624 158.111 231.762C162.434 232.933 165.139 238.038 163.839 242.506Z" fill="#32343E"/>
<path d="M203.331 253.114C201.946 257.854 197.516 260.189 192.742 258.693C188.476 257.357 185.923 252.831 187.013 248.524C188.077 244.313 193.463 241.184 197.657 242.359C201.97 243.566 204.649 248.626 203.331 253.114Z" fill="#32343E"/>
<path d="M172.967 257.057C177.285 258.535 179.938 263.882 178.41 268.058C176.925 272.118 171.948 274.678 167.877 273.472C163.535 272.181 160.754 266.978 162.105 262.652C163.46 258.263 168.673 255.587 172.967 257.057Z" fill="#32343E"/>
<path d="M146.801 352.465C142.689 351.364 139.79 346.552 140.728 342.384C141.729 337.977 146.725 334.82 151.114 335.842C155.455 336.852 158.564 342.027 157.437 346.375C156.314 350.711 151.199 353.644 146.801 352.465Z" fill="#32343E"/>
<path d="M142.66 321.55C141.345 326.078 136.468 328.742 132.043 327.377C128.093 326.152 125.228 321.068 126.218 317.042C127.287 312.717 132.322 309.891 136.824 311.11C141.614 312.406 144.043 316.771 142.66 321.55Z" fill="#32343E"/>
<path d="M180.278 352.726C181.335 348.398 186.513 345.328 190.839 346.487C194.914 347.579 197.864 352.391 197.029 356.561C196.151 360.937 191.13 364.139 186.705 363.158C182.319 362.175 179.205 357.113 180.278 352.726Z" fill="#32343E"/>
<path d="M197.225 323.656C192.833 322.645 189.762 317.57 190.877 313.168C191.989 308.778 197.102 305.806 201.467 307.013C205.604 308.161 208.475 312.888 207.584 317.119C206.679 321.501 201.653 324.676 197.225 323.656Z" fill="#32343E"/>
<path d="M201.534 273.396C202.814 269.051 208.05 266.24 212.322 267.602C216.657 268.968 219.389 274.26 217.949 278.486C216.576 282.511 211.591 285.198 207.531 284.097C203.211 282.914 200.274 277.669 201.534 273.396Z" fill="#32343E"/>
<path d="M151.375 302.648C152.449 298.26 157.535 295.243 161.912 296.403C166.242 297.55 169.221 302.78 167.973 307.057C166.794 311.122 161.953 313.987 157.79 313.077C153.425 312.112 150.311 307.051 151.375 302.648Z" fill="#32343E"/>
<path d="M171.987 337.824C167.41 336.597 164.943 332.465 166.02 327.873C167.183 322.959 171.485 320.384 176.325 321.681C181.153 322.975 183.582 327.392 182.138 332.205C180.778 336.708 176.552 339.047 171.987 337.824Z" fill="#32343E"/>
</g>
<defs>
<clipPath id="clip0_496_49265">
<rect width="324.121" height="324.009" fill="white" transform="translate(397.03 83.9727) rotate(105)"/>
</clipPath>
</defs>
</svg>
