<svg width="218" height="357" viewBox="0 0 218 357" fill="none" xmlns="http://www.w3.org/2000/svg">
<g clip-path="url(#clip0_496_50148)">
<path d="M35.5304 299.196C36.7726 295.683 41.5629 293.311 45.1589 294.412C48.9268 295.573 51.4612 300.646 50.125 304.364C48.7819 308.103 43.6024 310.453 39.9908 308.973C36.4768 307.537 34.2847 302.719 35.5304 299.196Z" fill="#EB272E"/>
<path d="M75.0881 208.588C71.4709 207.287 69.1412 202.636 70.3134 199.031C71.5454 195.253 76.5805 192.796 80.2919 194.153C83.8414 195.453 86.1636 200.158 85.0455 203.771C83.8782 207.525 78.8672 209.945 75.0881 208.588Z" fill="#EB272E"/>
<path d="M110.109 108.097C106.238 106.776 103.997 102.62 105.115 98.8147C106.242 94.9786 111.074 92.5529 114.955 93.8776C118.816 95.1952 121.189 100.111 119.752 103.794C118.343 107.43 113.92 109.397 110.109 108.097Z" fill="#EB272E"/>
<path d="M87.0538 175.033C83.175 173.8 80.854 169.549 81.9742 165.767C83.1331 161.874 88.0297 159.391 91.8457 160.773C95.4528 162.07 97.7482 166.755 96.5553 170.387C95.3484 174.059 90.8583 176.252 87.0538 175.033Z" fill="#EB2830"/>
<path d="M98.2614 141.443C94.4493 140.018 92.3568 135.63 93.7334 131.926C95.1201 128.225 99.6507 126.046 103.34 127.304C107.19 128.618 109.529 133.635 108.01 137.324C106.509 140.997 102.063 142.865 98.2614 141.443Z" fill="#EB2830"/>
<path d="M47.2368 265.8C48.4935 262.213 53.2394 259.871 56.8548 261.047C60.632 262.279 63.0473 267.401 61.5796 271.074C60.1506 274.635 55.3628 276.804 51.8102 275.48C48.244 274.163 45.9771 269.364 47.2368 265.8Z" fill="#EB272E"/>
<path d="M121.458 74.5895C117.646 73.1303 115.564 68.7465 116.95 65.0457C118.348 61.3146 122.782 59.2159 126.549 60.512C130.446 61.8537 132.766 66.7958 131.233 70.4914C129.709 74.1329 125.209 76.0277 121.458 74.5895Z" fill="#EB2830"/>
<path d="M63.3994 241.965C59.783 240.597 57.5861 235.89 58.8832 232.317C60.1838 228.733 64.9192 226.422 68.5038 227.621C72.2503 228.876 74.6414 234.035 73.164 237.671C71.7319 241.209 66.9551 243.313 63.3994 241.965Z" fill="#32343E"/>
<path d="M64.9969 129.85C61.1097 128.478 59.1104 124.214 60.5432 120.347C61.9374 116.593 66.5313 114.492 70.1702 115.96C73.671 117.368 75.6161 121.624 74.4202 125.233C73.0982 129.171 68.9044 131.229 64.9969 129.85Z" fill="#32343E"/>
<path d="M19.0539 68.5874C17.7078 72.563 13.5448 74.5974 9.6377 73.1844C5.86214 71.8171 3.74448 67.2737 5.16156 63.5834C6.5049 60.1055 10.8245 58.0122 14.4103 59.1097C18.2051 60.291 20.3684 64.7029 19.0539 68.5874Z" fill="#EB2830"/>
<path d="M16.0906 86.3958C17.4429 82.4677 21.6289 80.4979 25.5795 81.9487C29.2402 83.2875 31.3264 87.3666 30.2215 91.0066C29.085 94.7376 24.4978 97.112 20.7575 95.9043C17.0005 94.6794 14.7875 90.1823 16.0906 86.3958Z" fill="#EB2830"/>
<path d="M88.3853 63.0972C84.5303 61.8609 82.3094 57.4517 83.62 53.6111C84.9029 49.8176 89.447 47.6322 93.209 49.0062C96.7822 50.3033 98.8803 54.5111 97.7785 58.1749C96.6165 62.0444 92.254 64.3268 88.3853 63.0972Z" fill="#32343E"/>
<path d="M94.5853 75.9599C96.0216 72.0836 100.253 70.277 104.25 71.8232C107.987 73.2679 109.885 77.2363 108.617 80.9555C107.345 84.6848 102.698 86.9705 99.0465 85.669C95.3889 84.354 93.2258 79.6475 94.5853 75.9599Z" fill="#32343E"/>
<path d="M132.336 97.123C128.636 95.6686 126.594 91.0043 128.092 87.3759C129.625 83.6465 134.059 81.8762 137.892 83.4678C141.517 84.9754 143.336 89.0749 141.98 92.7185C140.582 96.4836 136.016 98.5704 132.336 97.123Z" fill="#EB272E"/>
<path d="M164.559 81.8108C163.182 85.549 158.608 87.6223 154.891 86.1846C151.063 84.7082 149.234 80.3784 150.795 76.5003C152.259 72.8715 156.401 70.9317 160.008 72.1954C163.737 73.5012 165.918 78.1232 164.559 81.8108Z" fill="#EB2830"/>
<path d="M61.2108 64.2602C62.7214 60.3984 66.9963 58.6296 70.9211 60.2527C74.6101 61.7714 76.483 65.8444 75.1648 69.4784C73.8256 73.173 69.0981 75.3967 65.5054 74.0249C61.8521 72.632 59.7739 67.9096 61.2108 64.2602Z" fill="#32343E"/>
<path d="M37.8638 131.515C39.1545 127.634 43.4534 125.567 47.3574 126.957C51.0221 128.251 53.1391 132.307 52.0676 135.981C50.968 139.737 46.431 142.162 42.663 141.002C38.9289 139.841 36.6151 135.275 37.8638 131.515Z" fill="#EB2830"/>
<path d="M152.148 171.267C150.744 175.019 146.144 177.105 142.491 175.645C138.839 174.184 136.805 169.398 138.316 165.831C139.808 162.314 144.003 160.483 147.668 161.778C151.599 163.154 153.598 167.385 152.148 171.267Z" fill="#EB2830"/>
<path d="M149.788 132.718C151.136 128.902 155.521 126.945 159.424 128.435C163.199 129.87 165.081 133.72 163.863 137.525C162.654 141.299 158.122 143.613 154.406 142.368C150.747 141.121 148.486 136.403 149.788 132.718Z" fill="#32343E"/>
<path d="M-5.71389 41.3345C-4.33743 37.3694 -0.212996 35.4464 3.75784 36.9042C7.405 38.2496 9.49467 42.3185 8.39325 45.9484C7.26333 49.693 2.74472 52.0006 -1.0734 50.7885C-4.86468 49.5971 -7.04119 45.158 -5.71389 41.3345Z" fill="#EB272E"/>
<path d="M176.821 131.211C172.891 129.733 171.077 125.556 172.637 121.586C174.081 117.916 178.185 115.953 181.806 117.21C185.502 118.481 187.807 123.203 186.486 126.813C185.143 130.518 180.539 132.614 176.821 131.211Z" fill="#32343E"/>
<path d="M197.314 149.035C196.115 152.881 191.728 155.166 187.941 153.931C184.235 152.723 181.936 148.049 183.234 144.374C184.504 140.78 188.62 138.718 192.328 139.824C196.377 141.026 198.558 145.058 197.314 149.035Z" fill="#EB272E"/>
<path d="M59.6579 37.3589C63.5051 38.6831 65.4432 42.9601 64.0021 46.9481C62.6348 50.7237 58.757 52.687 54.9759 51.4991C51.2149 50.3182 48.807 45.6967 50.0777 42.069C51.4046 38.2794 55.9118 36.0698 59.6579 37.3589Z" fill="#32343E"/>
<path d="M43.0204 84.7623C39.2422 83.3374 37.1288 78.7162 38.6291 75.1455C40.1992 71.4063 44.7848 69.428 48.4131 70.9255C52.1695 72.4789 53.8662 76.8308 52.2602 80.7388C50.7279 84.4345 46.748 86.1697 43.0204 84.7623Z" fill="#32343E"/>
<path d="M104.738 154.617C106.035 150.783 110.404 148.775 114.325 150.215C118.063 151.592 120.062 155.562 118.885 159.279C117.708 163.029 113.141 165.411 109.431 164.214C105.765 163.02 103.47 158.336 104.738 154.617Z" fill="#32343E"/>
<path d="M116.309 121.288C117.535 117.429 121.864 115.374 125.815 116.757C129.602 118.094 131.636 121.962 130.519 125.734C129.403 129.506 124.893 131.952 121.141 130.809C117.471 129.693 115.107 125.042 116.309 121.288Z" fill="#32343E"/>
<path d="M40.8645 113.664C39.5013 117.656 35.4133 119.637 31.4658 118.21C27.8521 116.899 25.773 112.8 26.8779 109.16C28.0355 105.368 32.5211 102.992 36.2649 104.19C40.0593 105.405 42.1891 109.783 40.8645 113.664Z" fill="#32343E"/>
<path d="M132.225 153.176C128.133 151.903 126.086 147.94 127.447 143.89C128.783 139.877 132.92 137.754 136.822 139.052C140.477 140.275 142.712 144.973 141.396 148.698C140.164 152.181 135.838 154.294 132.225 153.176Z" fill="#32343E"/>
<path d="M143.644 119.693C139.651 118.398 137.677 114.29 139.112 110.288C140.462 106.529 144.368 104.451 148.076 105.523C151.845 106.616 154.198 111.037 153.086 114.924C152.025 118.636 147.476 120.933 143.644 119.693Z" fill="#32343E"/>
<path d="M41.7697 57.7725C40.4877 61.4983 35.94 63.6938 32.1601 62.4043C28.4914 61.1534 26.3886 56.5019 27.7828 52.747C29.1766 49.0259 33.0597 47.1777 36.884 48.4373C40.9004 49.7636 43.0869 53.9455 41.7697 57.7725Z" fill="#32343E"/>
<path d="M161.473 99.0887C162.942 95.3144 167.292 93.5262 171.221 95.0715C174.938 96.5431 176.745 100.48 175.408 104.232C174.061 108.015 169.452 110.223 165.864 108.807C162.106 107.322 160.043 102.752 161.473 99.0887Z" fill="#32343E"/>
<path d="M21.505 39.88C17.741 38.6753 15.3934 34.1088 16.6245 30.3993C17.8415 26.7302 22.5254 24.4687 26.2376 25.7574C29.8825 27.0113 31.8878 31.0623 30.7539 34.8509C29.5288 38.9025 25.4208 41.1373 21.505 39.88Z" fill="#32343E"/>
<path d="M188.645 97.9017C184.74 96.614 182.73 92.3802 184.157 88.3988C185.487 84.6668 189.471 82.593 193.175 83.7089C196.91 84.8353 199.352 89.4233 198.185 93.1438C197.015 96.8405 192.422 99.1336 188.645 97.9017Z" fill="#32343E"/>
<path d="M149.28 188.837C150.6 185.033 155.087 182.817 158.775 184.143C162.21 185.38 164.437 189.837 163.388 193.349C162.272 197.087 157.77 199.378 153.946 198.152C149.871 196.862 147.885 192.886 149.28 188.837Z" fill="#32343E"/>
<path d="M97.0114 114.385C95.7426 118.138 91.1707 120.371 87.4554 119.058C83.7437 117.736 81.5864 113.111 82.9595 109.416C84.301 105.813 88.3885 103.866 92.1292 105.04C96.0924 106.291 98.3119 110.541 97.0114 114.385Z" fill="#EB2830"/>
<path d="M71.3361 142.965C72.684 139.115 77.012 137.161 80.9318 138.635C84.6529 140.028 86.6216 144.021 85.4244 147.731C84.2166 151.472 79.6264 153.822 75.9406 152.588C72.2786 151.351 70.0373 146.674 71.3361 142.965Z" fill="#32343E"/>
<path d="M129.817 321.102C126.078 319.793 123.863 315.171 125.222 311.517C126.582 307.829 131.257 305.723 134.917 307.13C138.486 308.505 140.432 312.66 139.232 316.346C137.961 320.235 133.617 322.433 129.817 321.102Z" fill="#EB272E"/>
<path d="M63.3464 103.458C61.632 107.091 56.8045 108.917 53.3717 107.215C49.784 105.437 48.0958 100.669 49.8221 97.1652C51.6353 93.4765 56.0925 92.0316 59.8719 93.9103C63.3619 95.6432 64.9566 100.028 63.3464 103.458Z" fill="#32343E"/>
<path d="M93.2243 187.818C94.6753 184.128 99.2671 182.198 102.99 183.717C106.571 185.187 108.46 189.344 107.189 192.972C105.884 196.701 101.265 198.906 97.6042 197.533C93.91 196.16 91.7945 191.448 93.2243 187.818Z" fill="#EB272E"/>
<path d="M129.734 182.063C128.431 185.815 123.97 187.86 120.161 186.458C116.433 185.084 114.554 181.225 115.759 177.427C116.989 173.558 121.327 171.279 125.095 172.507C128.774 173.694 131.026 178.34 129.734 182.063Z" fill="#32343E"/>
<path d="M-2.25363 106.492C-5.93647 105.021 -7.95665 100.262 -6.39922 96.7228C-4.9116 93.3517 -0.305318 91.3466 3.0516 92.6139C6.73879 94.0072 8.74476 98.5458 7.32333 102.314C5.84882 106.268 1.70893 108.072 -2.25363 106.492Z" fill="#32343E"/>
<path d="M85.8344 91.9293C84.4202 95.9379 80.2957 97.861 76.3798 96.3429C72.7638 94.9403 70.8065 90.8493 71.9694 87.1728C73.1675 83.3951 77.6654 81.1144 81.4423 82.3801C85.2798 83.667 87.2482 87.9545 85.8344 91.9293Z" fill="#32343E"/>
<path d="M165.243 164.661C161.323 163.221 159.455 159.036 160.98 155.1C162.351 151.541 166.575 149.494 170.144 150.642C173.813 151.825 176.122 156.537 174.837 160.205C173.538 163.947 169.012 166.048 165.243 164.661Z" fill="#EB272E"/>
<path d="M4.50956 119.789C5.92648 115.838 10.0813 113.925 14.0416 115.413C17.5739 116.73 19.7249 121.047 18.5913 124.541C17.3941 128.251 12.7326 130.611 9.07056 129.374C5.37157 128.113 3.17341 123.507 4.50956 119.789Z" fill="#32343E"/>
<path d="M204.267 106.543C208.299 107.921 210.231 111.923 208.779 115.941C207.499 119.498 203.233 121.667 199.701 120.576C195.957 119.413 193.548 114.825 194.749 111.139C195.963 107.412 200.466 105.247 204.267 106.543Z" fill="#32343E"/>
<path d="M185.583 182.795C184.253 186.527 179.635 188.698 175.991 187.309C172.571 185.997 170.418 181.521 171.525 178.04C172.709 174.303 177.243 172.08 181.023 173.37C185.025 174.736 187 178.811 185.583 182.795Z" fill="#32343E"/>
<path d="M169.685 206.881C173.618 208.382 175.438 212.573 173.883 216.498C172.506 219.976 168.15 222.011 164.626 220.833C160.98 219.613 158.67 214.81 160.008 211.217C161.374 207.509 165.974 205.456 169.685 206.881Z" fill="#32343E"/>
<path d="M158.083 240.3C161.986 241.791 163.833 246.036 162.274 249.938C160.88 253.432 156.551 255.455 153.02 254.263C149.379 253.033 147.074 248.243 148.402 244.647C149.762 240.959 154.382 238.88 158.083 240.3Z" fill="#32343E"/>
<path d="M150.634 283.469C149.189 286.946 144.769 288.936 141.325 287.661C137.64 286.292 135.437 281.571 136.815 277.992C138.225 274.356 142.94 272.298 146.59 273.735C150.405 275.218 152.226 279.636 150.634 283.469Z" fill="#32343E"/>
<path d="M118.253 354.547C114.52 353.251 112.248 348.632 113.559 344.984C114.871 341.336 119.594 339.157 123.255 340.529C126.716 341.822 128.772 346.151 127.624 349.753C126.363 353.713 122.12 355.878 118.253 354.547Z" fill="#32343E"/>
<path d="M137.65 222.337C138.95 218.527 143.472 216.243 147.089 217.578C150.78 218.928 152.973 223.611 151.618 227.254C150.343 230.699 146.021 232.735 142.391 231.6C138.283 230.309 136.269 226.38 137.65 222.337Z" fill="#32343E"/>
<path d="M135.809 195.121C139.816 196.376 141.926 200.486 140.617 204.451C139.369 208.212 134.827 210.488 131.135 209.207C127.685 208.009 125.427 203.61 126.433 200.06C127.485 196.311 132.018 193.929 135.809 195.121Z" fill="#32343E"/>
<path d="M124.259 228.558C128.225 229.833 130.32 233.983 128.981 237.939C127.712 241.692 123.151 243.928 119.473 242.606C116.017 241.361 113.81 236.979 114.849 233.43C115.938 229.705 120.495 227.354 124.259 228.558Z" fill="#32343E"/>
<path d="M107.75 275.984C104.073 274.56 101.992 269.814 103.468 266.246C104.987 262.591 109.683 260.651 113.288 262.186C116.831 263.699 118.645 267.877 117.341 271.504C115.987 275.273 111.416 277.404 107.75 275.984Z" fill="#32343E"/>
<path d="M81.5381 221.515C82.8474 217.776 87.3872 215.668 91.132 217.059C94.9476 218.474 96.9514 222.921 95.4693 226.668C94.0991 230.125 89.7426 232.195 86.2283 231.054C82.532 229.85 80.2463 225.203 81.5381 221.515Z" fill="#32343E"/>
<path d="M59.8112 176.196C61.2415 172.533 65.8773 170.606 69.583 172.142C73.1977 173.646 75.0597 177.783 73.7485 181.397C72.3957 185.098 67.7192 187.306 64.123 185.944C60.4798 184.555 58.3915 179.829 59.8112 176.196Z" fill="#32343E"/>
<path d="M40.4238 169.522C39.2569 173.243 34.6425 175.63 30.9462 174.426C27.2701 173.23 25.0147 168.593 26.2902 164.854C27.5446 161.175 31.5419 159.128 35.3274 160.239C39.1468 161.349 41.5941 165.792 40.4238 169.522Z" fill="#32343E"/>
<path d="M-7.10248 153.24C-5.69918 149.295 -1.51012 147.349 2.41323 148.813C6.14791 150.2 8.26432 154.845 6.80411 158.464C5.42073 161.894 0.959152 163.972 -2.51421 162.811C-6.21011 161.574 -8.42852 156.961 -7.10248 153.24Z" fill="#32343E"/>
<path d="M104.212 210.787C105.485 206.956 109.943 204.661 113.598 205.952C117.151 207.208 119.448 212.052 118.178 215.612C116.943 219.071 112.648 221.127 109.001 220.009C104.886 218.739 102.858 214.85 104.212 210.787Z" fill="#32343E"/>
<path d="M8.44823 185.102C4.63797 183.802 2.36381 179.318 3.70222 175.691C5.02308 172.115 9.87982 169.845 13.392 171.155C16.8333 172.44 18.8422 176.742 17.6867 180.364C16.3693 184.486 12.481 186.48 8.44823 185.102Z" fill="#32343E"/>
<path d="M48.2026 209.637C49.6228 205.97 54.2691 204.013 57.9546 205.541C61.4347 206.976 63.4054 211.355 62.1434 214.827C60.8007 218.532 56.1378 220.733 52.5315 219.368C48.8747 217.985 46.7894 213.283 48.2026 209.637Z" fill="#32343E"/>
<path d="M126.045 255.767C127.348 251.947 131.836 249.697 135.463 251.035C139.029 252.352 141.309 257.213 139.989 260.721C138.693 264.159 134.392 266.168 130.769 265.013C126.658 263.699 124.664 259.81 126.045 255.767Z" fill="#32343E"/>
<path d="M119.019 298.438C115.019 297.095 113.041 293.031 114.458 289.08C115.777 285.412 119.778 283.355 123.445 284.447C127.223 285.577 129.603 290.019 128.456 293.78C127.312 297.532 122.856 299.725 119.019 298.438Z" fill="#32343E"/>
<path d="M96.246 309.448C92.5623 308.045 90.4059 303.352 91.8146 299.783C93.2445 296.154 97.973 294.123 101.595 295.574C105.035 296.96 106.983 301.309 105.757 304.873C104.454 308.625 99.8927 310.827 96.246 309.448Z" fill="#32343E"/>
<path d="M92.6227 244.075C93.9672 240.235 98.3716 238.126 102.079 239.526C105.776 240.923 107.856 245.544 106.433 249.187C105.055 252.698 100.876 254.613 97.2276 253.403C93.2212 252.081 91.2327 248.047 92.6227 244.075Z" fill="#32343E"/>
<path d="M19.9082 151.633C16.1287 150.31 13.9372 145.718 15.3631 142.133C16.7996 138.517 21.5904 136.372 25.0947 137.77C28.5282 139.143 30.4558 143.451 29.2532 147.046C27.9027 151.099 23.9406 153.044 19.9082 151.633Z" fill="#32343E"/>
<path d="M102.81 322.698C104.16 318.645 108.095 316.747 112.14 318.185C115.721 319.462 117.925 323.593 116.906 327.15C115.858 330.787 111.172 333.252 107.495 332.089C103.657 330.87 101.519 326.58 102.81 322.698Z" fill="#32343E"/>
<path d="M48.801 153.945C50.0141 150.32 54.7969 148.002 58.3702 149.299C61.8018 150.547 63.8613 154.866 62.733 158.475C61.4495 162.597 57.5775 164.642 53.5408 163.309C49.6457 162.025 47.5071 157.803 48.801 153.945Z" fill="#32343E"/>
<path d="M41.8785 196.708C37.9975 195.383 35.8831 191.124 37.2104 187.301C38.474 183.693 43.2833 181.43 46.8289 182.774C50.2531 184.076 52.2519 188.374 51.0999 191.986C49.7996 196.091 45.9113 198.085 41.8785 196.708Z" fill="#32343E"/>
<path d="M27.845 259.171C26.4382 263.126 22.338 265.012 18.3913 263.517C14.7648 262.145 12.7833 258.091 13.9423 254.458C15.1505 250.684 19.6005 248.443 23.3672 249.706C27.1678 250.968 29.2202 255.308 27.845 259.171Z" fill="#32343E"/>
<path d="M84.624 342.861C80.9302 341.454 78.7804 336.775 80.2028 333.2C81.6428 329.574 86.453 327.504 89.9798 329C93.456 330.479 95.3704 334.759 94.1379 338.31C92.8281 342.082 88.2976 344.261 84.624 342.861Z" fill="#32343E"/>
<path d="M51.4469 331.344C47.7 330.122 45.4201 325.557 46.6916 321.861C47.9666 318.156 52.6229 315.941 56.2903 317.294C59.7655 318.579 61.9063 322.893 60.8295 326.452C59.6785 330.257 55.2241 332.576 51.4469 331.344Z" fill="#32343E"/>
<path d="M14.6778 198.338C15.9159 194.609 20.4697 192.461 24.2114 193.827C27.7341 195.107 29.8692 199.339 28.8157 202.929C27.7407 206.613 23.092 209.034 19.3785 207.847C15.702 206.684 13.4362 202.078 14.6778 198.338Z" fill="#32343E"/>
<path d="M5.93767 214.209C4.44208 218.223 0.492534 219.969 -3.55796 218.381C-7.07939 217 -9.16611 212.694 -7.96874 209.245C-6.75338 205.712 -1.84791 203.334 1.66508 204.576C5.32319 205.858 7.33886 210.434 5.93767 214.209Z" fill="#32343E"/>
<path d="M39.3608 225.835C37.8687 229.839 33.899 231.578 29.8722 229.987C26.2734 228.568 24.353 224.501 25.563 220.852C26.7449 217.284 31.5893 214.92 35.1357 216.196C38.7833 217.508 40.7791 222.043 39.3608 225.835Z" fill="#32343E"/>
<path d="M12.9065 227.339C16.541 228.884 18.4966 233.666 16.9158 237.175C15.3803 240.586 10.9243 242.484 7.4865 241.189C3.81954 239.803 1.74401 235.138 3.1809 231.489C4.62523 227.785 9.2922 225.801 12.9065 227.339Z" fill="#32343E"/>
<path d="M85.3463 286.715C81.3451 285.246 79.5795 281.256 81.1428 277.242C82.552 273.64 86.6122 271.706 90.2615 272.882C93.8263 274.04 96.2212 278.895 94.9685 282.439C93.7008 286.09 89.135 288.109 85.3463 286.715Z" fill="#32343E"/>
<path d="M74.0919 320.505C70.2567 319.309 68.0987 315.013 69.3759 311.138C70.66 307.243 74.2801 305.303 78.1571 306.411C82.0644 307.529 84.5182 311.725 83.4591 315.494C82.4597 319.091 77.7113 321.636 74.0919 320.505Z" fill="#32343E"/>
<path d="M83.8959 260.007C82.4621 263.68 77.7631 265.789 74.2052 264.349C70.5799 262.876 68.5434 258.066 70.0666 254.56C71.6385 250.946 76.3618 249.061 79.9352 250.618C83.3437 252.096 85.2318 256.583 83.8959 260.007Z" fill="#32343E"/>
<path d="M13.2332 310.371C14.4164 306.702 19.0775 304.376 22.7391 305.647C26.1883 306.844 28.4338 311.183 27.4519 314.729C26.4204 318.452 21.8865 320.901 18.1283 319.778C14.4039 318.655 12.0325 314.092 13.2332 310.371Z" fill="#32343E"/>
<path d="M29.679 286.34C25.9515 285.193 23.6175 280.62 24.8556 276.89C26.0902 273.171 30.6893 270.925 34.3808 272.241C37.8802 273.489 40.0623 277.749 39.029 281.346C37.9739 285.071 33.4369 287.497 29.679 286.34Z" fill="#32343E"/>
<path d="M36.5414 243.228C37.9176 239.558 42.613 237.459 46.215 238.902C49.871 240.353 51.8982 245.091 50.3913 248.648C48.9543 252.037 44.4834 254.044 41.0479 252.84C37.3933 251.548 35.1862 246.838 36.5414 243.228Z" fill="#32343E"/>
<path d="M-8.58171 265.34C-7.38098 261.62 -2.80169 259.333 0.903899 260.608C4.56903 261.869 6.81341 266.57 5.4684 270.183C4.1967 273.618 -0.161059 275.789 -3.69679 274.743C-7.40448 273.637 -9.77584 269.074 -8.58171 265.34Z" fill="#32343E"/>
<path d="M62.7385 297.806C59.1019 296.43 56.9735 291.656 58.4092 288.108C59.8795 284.493 64.6757 282.463 68.1955 283.98C71.6277 285.455 73.5711 289.847 72.3329 293.316C71.0139 297.017 66.3716 299.191 62.7385 297.806Z" fill="#32343E"/>
<path d="M7.00927 296.99C3.13524 295.645 1.26473 291.924 2.48119 288.029C3.79245 283.859 7.66668 281.906 11.7632 283.328C15.8497 284.747 17.6698 288.711 16.1228 292.775C14.6671 296.577 10.8732 298.331 7.00927 296.99Z" fill="#32343E"/>
</g>
<defs>
<clipPath id="clip0_496_50148">
<rect width="280.494" height="280.398" fill="white" transform="translate(217.128 91.9561) rotate(109.144)"/>
</clipPath>
</defs>
</svg>
