<svg width="227" height="231" viewBox="0 0 227 231" fill="none" xmlns="http://www.w3.org/2000/svg">
<path d="M23.8889 101.107C23.8889 101.107 63.8395 99.529 72.4729 34.7396C80.1396 -22.7997 147.507 3.39008 166.98 26.3266C192.206 56.0389 178.759 107.15 211.392 113.607C244.025 120.064 222.715 191.853 173.18 184.982C111.56 176.434 126.469 211.958 107.971 226.994C94.6953 237.785 40.2607 227.397 38.4465 188.224C36.9198 155.26 22.8259 155.364 12.836 151.627C-1.57162 146.236 -10.65 107.195 23.8889 101.107Z" fill="#F9B8B9"/>
<path d="M161.139 182.15L121.118 140.837L113.193 149.215L153.214 190.528L161.139 182.15Z" fill="#EB252D"/>
<path d="M176.428 193.25L145.291 161.109C145.118 160.93 144.839 160.932 144.667 161.113L132.882 173.572C132.711 173.753 132.713 174.045 132.886 174.224L164.023 206.365C164.196 206.544 164.475 206.542 164.647 206.361L176.432 193.902C176.603 193.721 176.601 193.429 176.428 193.25Z" fill="#E52823"/>
<path d="M85.6481 161.614C113.181 161.614 135.501 138.297 135.501 109.534C135.501 80.7705 113.181 57.4534 85.6481 57.4534C58.1149 57.4534 35.7949 80.7705 35.7949 109.534C35.7949 138.297 58.1149 161.614 85.6481 161.614Z" fill="#E52823"/>
<path d="M85.6493 153.116C108.69 153.116 127.368 133.604 127.368 109.534C127.368 85.4638 108.69 65.9513 85.6493 65.9513C62.6087 65.9513 43.9307 85.4638 43.9307 109.534C43.9307 133.604 62.6087 153.116 85.6493 153.116Z" fill="#F9B8B9"/>
<ellipse cx="83.8508" cy="96.6394" rx="7.09106" ry="7.09106" stroke="#EB2830" stroke-width="3" stroke-linecap="round" stroke-linejoin="round"/>
<path d="M100.396 96.0485C100.396 109.344 83.8505 122.64 83.8505 122.64C83.8505 122.64 67.3047 109.344 67.3047 96.0485C67.3047 87.2368 74.7125 80.0936 83.8505 80.0936C92.9885 80.0936 100.396 87.2368 100.396 96.0485Z" stroke="#EB2830" stroke-width="3" stroke-linecap="round" stroke-linejoin="round"/>
<path d="M162.041 11.427C150.876 7.76653 138.809 13.9574 135.175 25.2968C131.556 36.5897 137.677 48.7938 148.889 52.4691C160.1 56.1443 172.135 49.8927 175.755 38.5993C179.375 27.3058 173.207 15.0873 162.041 11.427ZM158.672 21.94C159.922 22.3498 161.023 23.1257 161.836 24.1694C162.65 25.2131 163.138 26.4775 163.24 27.8023C163.341 29.1271 163.052 30.4526 162.407 31.6107C161.763 32.7687 160.793 33.7072 159.621 34.307C158.449 34.9069 157.127 35.141 155.822 34.9799C154.518 34.8187 153.291 34.2694 152.296 33.4017C151.301 32.534 150.583 31.3869 150.234 30.106C149.884 28.8251 149.919 27.4681 150.333 26.207C151.451 22.718 155.222 20.8092 158.672 21.94ZM150.242 48.2455C146.533 47.0356 143.354 44.559 141.252 41.2398C145.186 38.9785 149.301 38.3487 153.023 39.5689C156.745 40.7891 159.772 43.7089 161.587 47.9059C157.959 49.3465 153.948 49.4666 150.242 48.2455Z" fill="#E52823"/>
<path d="M86.1455 175.753C83.2962 177.224 80.942 179.517 79.3809 182.342C77.8197 185.167 77.1217 188.396 77.375 191.622C77.6283 194.848 78.8216 197.926 80.804 200.466C82.7864 203.006 85.4688 204.894 88.5121 205.892C91.5554 206.89 94.8228 206.952 97.9012 206.072C100.98 205.191 103.731 203.407 105.807 200.944C107.882 198.482 109.19 195.452 109.564 192.238C109.937 189.024 109.36 185.77 107.906 182.888C105.952 179.026 102.564 176.106 98.4843 174.768C94.4047 173.43 89.9673 173.785 86.1455 175.753ZM89.913 183.219C90.8005 182.761 91.8025 182.579 92.792 182.698C93.7815 182.817 94.7138 183.23 95.4708 183.885C96.2278 184.541 96.7753 185.409 97.0438 186.38C97.3123 187.35 97.2898 188.38 96.9791 189.337C96.6685 190.295 96.0836 191.138 95.2987 191.759C94.5138 192.38 93.5643 192.751 92.5706 192.825C91.5769 192.899 90.5838 192.673 89.7172 192.176C88.8506 191.678 88.1497 190.932 87.7033 190.031C87.1116 188.829 87.0117 187.441 87.4253 186.165C87.839 184.89 88.7328 183.831 89.913 183.218V183.219ZM99.3395 201.901C96.7089 203.264 93.6914 203.66 90.804 203.021C91.715 199.673 93.5874 197.104 96.2309 195.739C98.8744 194.374 102.045 194.299 105.243 195.565C104.061 198.305 101.974 200.545 99.3395 201.9V201.901Z" fill="#E52823"/>
</svg>
