<svg width="38" height="38" viewBox="0 0 38 38" fill="none" xmlns="http://www.w3.org/2000/svg">
<g id="Settings">
<path id="Union" d="M9.10873 9.63258L8.35873 10.9316H8.35873L9.10873 9.63258ZM7.7427 9.9986L6.44367 9.2486L6.44366 9.2486L7.7427 9.9986ZM5.57604 13.7514L6.87507 14.5014H6.87507L5.57604 13.7514ZM5.94206 15.1174L6.69206 13.8184H6.69206L5.94206 15.1174ZM5.94206 22.8826L6.69206 24.1816H6.69206L5.94206 22.8826ZM5.57604 24.2486L6.87508 23.4986H6.87508L5.57604 24.2486ZM7.7427 28.0014L6.44367 28.7514H6.44367L7.7427 28.0014ZM9.10873 28.3674L9.85873 29.6664L9.10873 28.3674ZM28.8917 28.3674L28.1417 29.6664L28.8917 28.3674ZM30.2578 28.0014L28.9587 27.2514L30.2578 28.0014ZM32.4244 24.2486L33.7235 24.9986L32.4244 24.2486ZM32.0584 22.8826L31.3084 24.1816L31.3084 24.1816L32.0584 22.8826ZM32.0584 15.1174L31.3084 13.8184L31.3084 13.8184L32.0584 15.1174ZM32.4244 13.7514L33.7235 13.0014L32.4244 13.7514ZM30.2578 9.9986L28.9587 10.7486V10.7486L30.2578 9.9986ZM28.8917 9.63258L28.1417 8.33354L28.1417 8.33354L28.8917 9.63258ZM22.8242 10.301L22.2198 11.6739L22.8242 10.301ZM25.7865 11.4254L25.0365 10.1264L25.7865 11.4254ZM28.4442 17.9619L26.9529 18.1239L28.4442 17.9619ZM28.9535 16.91L28.2035 15.611L28.9535 16.91ZM24.6197 26.6605L25.5079 27.8693L24.6197 26.6605ZM25.7865 26.5746L25.0365 27.8736L25.7865 26.5746ZM28.9535 21.09L29.7035 19.7909L28.9535 21.09ZM28.4442 20.0381L26.9529 19.8761L28.4442 20.0381ZM15.1763 27.699L14.5719 29.0719L15.1763 27.699ZM12.214 26.5746L11.464 25.2755L12.214 26.5746ZM13.3807 26.6605L14.2689 25.4517L13.3807 26.6605ZM22.8242 27.699L22.2198 26.3261L22.8242 27.699ZM9.55631 20.0381L8.06509 20.2002L9.55631 20.0381ZM9.04696 21.09L9.79696 22.389L9.04696 21.09ZM9.04696 16.91L9.79696 15.611L9.04696 16.91ZM12.214 11.4254L11.464 12.7245L12.214 11.4254ZM15.1763 10.301L14.5719 8.92814L15.1763 10.301ZM17.3336 5.75C17.3336 6.02614 17.1097 6.25 16.8336 6.25V3.25C15.4529 3.25 14.3336 4.36929 14.3336 5.75H17.3336ZM17.3336 9.33339V5.75H14.3336V9.33339H17.3336ZM14.2689 12.5483C14.7371 12.2042 15.2436 11.9103 15.7806 11.6739L14.5719 8.92814C13.8321 9.2538 13.1355 9.6583 12.4925 10.1307L14.2689 12.5483ZM8.35873 10.9316L11.464 12.7245L12.964 10.1264L9.85873 8.33354L8.35873 10.9316ZM9.04174 10.7486C8.90367 10.9877 8.59788 11.0697 8.35873 10.9316L9.85873 8.33354C8.663 7.64318 7.13402 8.05288 6.44367 9.2486L9.04174 10.7486ZM6.87507 14.5014L9.04174 10.7486L6.44366 9.2486L4.277 13.0014L6.87507 14.5014ZM6.69206 13.8184C6.93121 13.9564 7.01315 14.2622 6.87507 14.5014L4.277 13.0014C3.58664 14.1971 3.99633 15.7261 5.19206 16.4164L6.69206 13.8184ZM9.79696 15.611L6.69206 13.8184L5.19206 16.4164L8.29696 18.2091L9.79696 15.611ZM11.0002 19C11.0002 18.7034 11.0163 18.4112 11.0475 18.1239L8.06509 17.7998C8.02219 18.1945 8.00024 18.5949 8.00024 19H11.0002ZM11.0475 19.8761C11.0163 19.5888 11.0002 19.2966 11.0002 19H8.00024C8.00024 19.4051 8.02219 19.8055 8.06509 20.2002L11.0475 19.8761ZM6.69206 24.1816L9.79696 22.389L8.29696 19.7909L5.19206 21.5835L6.69206 24.1816ZM6.87508 23.4986C7.01315 23.7377 6.93121 24.0435 6.69206 24.1816L5.19206 21.5835C3.99633 22.2739 3.58664 23.8029 4.277 24.9986L6.87508 23.4986ZM9.04174 27.2514L6.87508 23.4986L4.277 24.9986L6.44367 28.7514L9.04174 27.2514ZM8.35873 27.0684C8.59787 26.9303 8.90367 27.0122 9.04174 27.2514L6.44367 28.7514C7.13402 29.9471 8.663 30.3568 9.85873 29.6664L8.35873 27.0684ZM11.464 25.2755L8.35873 27.0684L9.85873 29.6664L12.964 27.8736L11.464 25.2755ZM15.7806 26.3261C15.2436 26.0897 14.7371 25.7957 14.2689 25.4517L12.4925 27.8693C13.1355 28.3417 13.8321 28.7462 14.5719 29.0719L15.7806 26.3261ZM17.3336 32.25V28.6666H14.3336V32.25H17.3336ZM16.8336 31.75C17.1097 31.75 17.3336 31.9739 17.3336 32.25H14.3336C14.3336 33.6307 15.4529 34.75 16.8336 34.75V31.75ZM21.1669 31.75H16.8336V34.75H21.1669V31.75ZM20.6669 32.25C20.6669 31.9739 20.8908 31.75 21.1669 31.75V34.75C22.5476 34.75 23.6669 33.6307 23.6669 32.25H20.6669ZM20.6669 28.6666V32.25H23.6669V28.6666H20.6669ZM23.7315 25.4517C23.2634 25.7958 22.7568 26.0897 22.2198 26.3261L23.4286 29.0719C24.1683 28.7462 24.865 28.3417 25.5079 27.8693L23.7315 25.4517ZM29.6417 27.0684L26.5365 25.2755L25.0365 27.8736L28.1417 29.6664L29.6417 27.0684ZM28.9587 27.2514C29.0968 27.0122 29.4026 26.9303 29.6417 27.0684L28.1417 29.6664C29.3375 30.3568 30.8664 29.9471 31.5568 28.7514L28.9587 27.2514ZM31.1254 23.4986L28.9587 27.2514L31.5568 28.7514L33.7235 24.9986L31.1254 23.4986ZM31.3084 24.1816C31.0693 24.0435 30.9873 23.7377 31.1254 23.4986L33.7235 24.9986C34.4138 23.8029 34.0041 22.2739 32.8084 21.5835L31.3084 24.1816ZM28.2035 22.389L31.3084 24.1816L32.8084 21.5835L29.7035 19.7909L28.2035 22.389ZM27.0002 19C27.0002 19.2966 26.9842 19.5888 26.9529 19.8761L29.9354 20.2002C29.9783 19.8055 30.0002 19.4051 30.0002 19H27.0002ZM26.9529 18.1239C26.9842 18.4112 27.0002 18.7034 27.0002 19H30.0002C30.0002 18.5949 29.9783 18.1945 29.9354 17.7998L26.9529 18.1239ZM31.3084 13.8184L28.2035 15.611L29.7035 18.2091L32.8084 16.4164L31.3084 13.8184ZM31.1254 14.5014C30.9873 14.2622 31.0693 13.9564 31.3084 13.8184L32.8084 16.4164C34.0041 15.7261 34.4138 14.1971 33.7235 13.0014L31.1254 14.5014ZM28.9587 10.7486L31.1254 14.5014L33.7235 13.0014L31.5568 9.2486L28.9587 10.7486ZM29.6417 10.9316C29.4026 11.0697 29.0968 10.9878 28.9587 10.7486L31.5568 9.2486C30.8664 8.05287 29.3375 7.64319 28.1417 8.33354L29.6417 10.9316ZM26.5365 12.7245L29.6417 10.9316L28.1417 8.33354L25.0365 10.1264L26.5365 12.7245ZM22.2198 11.6739C22.7568 11.9103 23.2634 12.2042 23.7315 12.5482L25.5079 10.1307C24.865 9.65829 24.1683 9.2538 23.4286 8.92814L22.2198 11.6739ZM20.6669 5.75V9.33339H23.6669V5.75H20.6669ZM21.1669 6.25C20.8908 6.25 20.6669 6.02614 20.6669 5.75H23.6669C23.6669 4.36929 22.5476 3.25 21.1669 3.25V6.25ZM16.8336 6.25H21.1669V3.25H16.8336V6.25ZM23.4286 8.92814C23.5252 8.97069 23.6669 9.09986 23.6669 9.33339H20.6669C20.6669 10.4146 21.3474 11.2898 22.2198 11.6739L23.4286 8.92814ZM25.0365 10.1264C25.2386 10.0097 25.4218 10.0675 25.5079 10.1307L23.7315 12.5482C24.5009 13.1136 25.6 13.2651 26.5365 12.7245L25.0365 10.1264ZM29.9354 17.7998C29.9469 17.9054 29.9054 18.0925 29.7035 18.2091L28.2035 15.611C27.2683 16.1509 26.85 17.1765 26.9529 18.1239L29.9354 17.7998ZM25.5079 27.8693C25.4219 27.9325 25.2386 27.9903 25.0365 27.8736L26.5365 25.2755C25.6 24.7349 24.5009 24.8864 23.7315 25.4517L25.5079 27.8693ZM29.7035 19.7909C29.9054 19.9075 29.9469 20.0946 29.9354 20.2002L26.9529 19.8761C26.85 20.8235 27.2683 21.8491 28.2035 22.389L29.7035 19.7909ZM14.5719 29.0719C14.4752 29.0293 14.3336 28.9001 14.3336 28.6666H17.3336C17.3336 27.5854 16.6531 26.7102 15.7806 26.3261L14.5719 29.0719ZM12.964 27.8736C12.7619 27.9903 12.5786 27.9325 12.4925 27.8693L14.2689 25.4517C13.4996 24.8864 12.4005 24.7349 11.464 25.2755L12.964 27.8736ZM23.6669 28.6666C23.6669 28.9001 23.5252 29.0293 23.4286 29.0719L22.2198 26.3261C21.3474 26.7102 20.6669 27.5854 20.6669 28.6666H23.6669ZM8.06509 20.2002C8.05361 20.0946 8.0951 19.9075 8.29696 19.7909L9.79696 22.389C10.7322 21.8491 11.1505 20.8235 11.0475 19.8761L8.06509 20.2002ZM8.29696 18.2091C8.0951 18.0925 8.05361 17.9054 8.06509 17.7998L11.0475 18.1239C11.1505 17.1765 10.7322 16.1509 9.79696 15.611L8.29696 18.2091ZM12.4925 10.1307C12.5786 10.0675 12.7619 10.0097 12.964 10.1264L11.464 12.7245C12.4005 13.2651 13.4996 13.1136 14.2689 12.5483L12.4925 10.1307ZM14.3336 9.33339C14.3336 9.09986 14.4752 8.97069 14.5719 8.92814L15.7806 11.6739C16.6531 11.2898 17.3336 10.4146 17.3336 9.33339H14.3336Z" fill="#EFEFEF"/>
<circle id="Ellipse 99" cx="19" cy="19" r="4.75" stroke="#EFEFEF" stroke-width="3" stroke-linecap="round" stroke-linejoin="round"/>
</g>
</svg>
