<svg width="441" height="459" viewBox="0 0 441 459" fill="none" xmlns="http://www.w3.org/2000/svg">
<path d="M114.955 14.9102C118.853 18.7415 122.958 22.346 127.521 25.3556C150.791 40.7068 220.001 77.5938 329.484 61.9937C466.278 42.5022 446.724 180.191 427.169 216.943C407.614 253.694 335.439 321.202 329.484 354.912C323.528 388.621 349.911 480.529 288.81 453.152C227.71 425.775 192.227 361.245 112.195 369.067C32.1626 376.889 -24.5463 341.625 10.6523 278.106C45.8508 214.588 88.0654 173.521 33.7156 103.123C-19.1257 34.6805 69.1959 -30.0648 114.955 14.9102Z" fill="#EFEFEF"/>
<path d="M42.3466 189.135L323.455 134.384L312.64 78.8553C312.274 76.9773 311.542 75.1897 310.485 73.5946C309.429 71.9996 308.068 70.6283 306.482 69.559C304.895 68.4897 303.113 67.7434 301.238 67.3626C299.363 66.9819 297.432 66.9743 295.554 67.3401L36.9443 161.398L42.3466 189.135Z" fill="#8F1C26"/>
<path d="M37.1143 162.279L344.532 102.406C348.951 101.545 353.531 102.475 357.265 104.992C360.999 107.508 363.58 111.405 364.44 115.824L399.796 297.356C400.656 301.775 399.726 306.355 397.21 310.089C394.693 313.823 390.797 316.404 386.378 317.265L95.6237 373.892C91.2043 374.753 86.624 373.823 82.8903 371.306C79.1567 368.79 76.5756 364.893 75.7149 360.474L37.1143 162.279Z" fill="#E52823"/>
<path d="M265.642 190.715L373.102 169.786C377.522 168.925 382.102 169.855 385.836 172.372C389.569 174.888 392.15 178.784 393.011 183.204L400.992 224.183C401.853 228.602 400.923 233.182 398.406 236.916C395.89 240.65 391.993 243.231 387.574 244.092L280.113 265.021C279.268 265.185 278.391 265.007 277.677 264.526C276.963 264.044 276.469 263.299 276.304 262.453L263.074 194.524C262.909 193.679 263.087 192.802 263.569 192.088C264.05 191.374 264.796 190.88 265.642 190.715Z" fill="#8F1C26"/>
<path d="M308.152 238.323C317.722 238.323 325.481 230.564 325.481 220.993C325.481 211.423 317.722 203.664 308.152 203.664C298.581 203.664 290.822 211.423 290.822 220.993C290.822 230.564 298.581 238.323 308.152 238.323Z" fill="#EFEFEF"/>
</svg>
